<svg id="图层_1" data-name="图层 1" xmlns="http://www.w3.org/2000/svg" viewBox="0 0 547.25 392.63"><defs><style>.cls-1{fill:#fff;}</style></defs><title>21</title><path d="M291.43,264.16H176.94c-0.56,4.45-.63,9-1.76,13.25-3.88,14.58-7.78,29.16-12.36,43.53-3.19,10-17.23,13.78-26.83,7.52a37.88,37.88,0,0,1-8.92-8.42q-24.78-31.78-49.18-63.84a111.62,111.62,0,0,1-10.3-16c-3-5.85-3-12.24,2.32-16.83a18.24,18.24,0,0,1,10.37-4.28c15.72-.68,31.47-0.67,47.2-0.9,2,0,4,0,6.18,0V154.45c-3.76,0-7.59-.08-11.41,0C102,154.93,83.35,149,65.14,141c-18.77-8.27-29.27-23.13-34-42.52-3.41-14-4.28-28.14.54-42.11,8.43-24.44,33.71-34.85,56.7-23.26,17.39,8.77,31.64,21.78,45.79,34.79a83,83,0,0,1,20.5,29.7c2.33,5.65,4.53,11.36,6.47,17.15,6.83,20.39,12.63,41.08,15,62.5,1.31,11.9,1.4,23.93,2,35.9,0.08,1.48,0,3,0,4.74h113V71.68h-4.48c-27.75,0-55.5,0-83.25.06a6.45,6.45,0,0,1-5.88-2.95c-8.51-11.55-17.18-23-26.17-34.94H575.6v37H335.18v97.57a22.75,22.75,0,0,0,2.43-1.28,74.81,74.81,0,0,1,46.66-13.42c14.74,0.66,29.54,1.19,43.34,7.21,40.19,17.53,64.57,47.43,72.44,91,4.5,24.95,0,48.62-6.46,72.41-4.77,17.58-12.75,33.51-23.24,48.85l-47-33.08a13.19,13.19,0,0,1,1.25-1.41c18-14.92,29.67-33.94,35.71-56.35,3-10.93,5.94-22,7.29-33.19,2.66-22.08-10.14-41.57-31.22-49a83.42,83.42,0,0,0-44.69-3,67,67,0,0,0-14.74,5.31c-12.09,5.6-24.07,11.47-36,17.37-4.63,2.28-6.21,5.88-6.19,11.4,0.26,61.62.16,123.24,0.16,184.86V421c-1.26-1-2.1-1.61-2.82-2.32-12.85-12.61-25.73-25.18-38.44-37.92a8.58,8.58,0,0,1-2.1-5.53c-0.12-35.37-.09-70.75-0.09-106.12v-4.92ZM105.52,142a54.92,54.92,0,0,0,26.06-5.69,5.3,5.3,0,0,0,2.71-3.11c1.06-5.25,2.3-10.54,2.5-15.86,0.94-25.35-20.72-55.4-44.89-63.24-21.59-7-36.94,6.7-39.65,22.65C46.6,109.91,71.83,140.91,105.52,142Z" transform="translate(-28.35 -28.35)"/><path class="cls-1" d="M105.53,142c-33.7-1.07-58.92-32.07-53.27-65.26C55,60.77,70.32,47.07,91.91,54.07c24.17,7.85,45.83,37.89,44.89,63.24-0.2,5.32-1.44,10.62-2.5,15.86a5.3,5.3,0,0,1-2.71,3.11A55,55,0,0,1,105.53,142Z" transform="translate(-28.35 -28.35)"/></svg>